<svg width="50" height="51" viewBox="0 0 50 51" fill="none" xmlns="http://www.w3.org/2000/svg">
<g id="cib:facebook">
<path id="Vector" d="M50 25.5C50 11.6891 38.8016 0.5 25 0.5C11.1891 0.5 0 11.6891 0 25.5C0 37.975 9.13906 48.3187 21.0938 50.1922V32.7281H14.7453V25.5016H21.0938V19.9906C21.0938 13.7266 24.8203 10.2672 30.5328 10.2672C33.2687 10.2672 36.1328 10.7547 36.1328 10.7547V16.9062H32.975C29.875 16.9062 28.9062 18.8359 28.9062 20.8125V25.5H35.8391L34.725 32.7266H28.9062V50.1906C40.8516 48.3172 50 37.9734 50 25.4984V25.5Z" fill="#222222"/>
</g>
</svg>
