<svg width="50" height="51" viewBox="0 0 50 51" fill="none" xmlns="http://www.w3.org/2000/svg">
<g id="fe:google">
<path id="Vector" d="M24.9792 29.4584V21.7084H44.4792C44.7709 23.0209 45.0001 24.25 45.0001 25.9792C45.0001 37.875 37.0209 46.3334 25.0001 46.3334C13.5001 46.3334 4.16675 37 4.16675 25.5C4.16675 14 13.5001 4.66669 25.0001 4.66669C30.6251 4.66669 35.3334 6.72919 38.9376 10.1042L33.0209 15.8542C31.5209 14.4375 28.8959 12.7709 25.0001 12.7709C18.1042 12.7709 12.4792 18.5 12.4792 25.5209C12.4792 32.5417 18.1042 38.2709 25.0001 38.2709C32.9792 38.2709 35.9167 32.75 36.4584 29.4792H24.9792V29.4584Z" fill="#222222"/>
</g>
</svg>
