<svg width="40" height="41" viewBox="0 0 40 41" fill="none" xmlns="http://www.w3.org/2000/svg">
<g id="Group">
<path id="Vector" d="M1.25 18.4167C1.25 10.5604 1.25 6.63125 3.69167 4.19167C6.13125 1.75 10.0604 1.75 17.9167 1.75H22.0833C29.9396 1.75 33.8687 1.75 36.3083 4.19167C38.75 6.63125 38.75 10.5604 38.75 18.4167V22.5833C38.75 30.4396 38.75 34.3687 36.3083 36.8083C33.8687 39.25 29.9396 39.25 22.0833 39.25H17.9167C10.0604 39.25 6.13125 39.25 3.69167 36.8083C1.25 34.3687 1.25 30.4396 1.25 22.5833V18.4167Z" stroke="#222222" stroke-width="2.08333"/>
<path id="Vector_2" d="M29.375 14.25C31.1009 14.25 32.5 12.8509 32.5 11.125C32.5 9.39911 31.1009 8 29.375 8C27.6491 8 26.25 9.39911 26.25 11.125C26.25 12.8509 27.6491 14.25 29.375 14.25Z" fill="#222222"/>
<path id="Vector_3" d="M20 26.75C23.4518 26.75 26.25 23.9518 26.25 20.5C26.25 17.0482 23.4518 14.25 20 14.25C16.5482 14.25 13.75 17.0482 13.75 20.5C13.75 23.9518 16.5482 26.75 20 26.75Z" stroke="#222222" stroke-width="2.08333"/>
</g>
</svg>
