<svg width="32" height="30" viewBox="0 0 32 30" fill="none" xmlns="http://www.w3.org/2000/svg">
<path id="Star 1" d="M14.1071 2.04825C14.7231 0.24263 17.2769 0.242625 17.8929 2.04825L20.2528 8.96544C20.5291 9.77529 21.29 10.3197 22.1457 10.3197H29.5669C31.5279 10.3197 32.3175 12.8485 30.7049 13.9643L24.8716 18.0007C24.1362 18.5095 23.828 19.4447 24.1167 20.2911L26.384 26.9368C27.0068 28.7624 24.9393 30.3248 23.3531 29.2273L17.138 24.9268C16.4533 24.453 15.5467 24.453 14.862 24.9268L8.64689 29.2273C7.06069 30.3248 4.99317 28.7624 5.616 26.9368L7.88328 20.2911C8.17204 19.4447 7.86383 18.5095 7.12843 18.0007L1.29509 13.9643C-0.317499 12.8485 0.472111 10.3197 2.4331 10.3197H9.85435C10.71 10.3197 11.4709 9.7753 11.7472 8.96544L14.1071 2.04825Z" fill="#FFD700"/>
</svg>
