<svg width="50" height="50" viewBox="0 0 101 100" fill="none" xmlns="http://www.w3.org/2000/svg">
<g id="mdi:cart-outline">
<path id="Vector" d="M71.3334 75C73.5435 75 75.6632 75.878 77.226 77.4408C78.7888 79.0036 79.6667 81.1232 79.6667 83.3333C79.6667 85.5434 78.7888 87.6631 77.226 89.2259C75.6632 90.7887 73.5435 91.6666 71.3334 91.6666C69.1233 91.6666 67.0037 90.7887 65.4409 89.2259C63.8781 87.6631 63.0001 85.5434 63.0001 83.3333C63.0001 78.7083 66.7084 75 71.3334 75ZM4.66675 8.33331H18.2917L22.2084 16.6666H83.8334C84.9385 16.6666 85.9983 17.1056 86.7797 17.887C87.5611 18.6684 88.0001 19.7282 88.0001 20.8333C88.0001 21.5416 87.7917 22.25 87.5001 22.9166L72.5834 49.875C71.1667 52.4166 68.4167 54.1666 65.2917 54.1666H34.2501L30.5001 60.9583L30.3751 61.4583C30.3751 61.7346 30.4848 61.9995 30.6802 62.1949C30.8755 62.3902 31.1405 62.5 31.4167 62.5H79.6667V70.8333H29.6667C27.4566 70.8333 25.337 69.9553 23.7742 68.3925C22.2114 66.8297 21.3334 64.7101 21.3334 62.5C21.3334 61.0416 21.7084 59.6666 22.3334 58.5L28.0001 48.2916L13.0001 16.6666H4.66675V8.33331ZM29.6667 75C31.8769 75 33.9965 75.878 35.5593 77.4408C37.1221 79.0036 38.0001 81.1232 38.0001 83.3333C38.0001 85.5434 37.1221 87.6631 35.5593 89.2259C33.9965 90.7887 31.8769 91.6666 29.6667 91.6666C27.4566 91.6666 25.337 90.7887 23.7742 89.2259C22.2114 87.6631 21.3334 85.5434 21.3334 83.3333C21.3334 78.7083 25.0417 75 29.6667 75ZM67.1667 45.8333L78.7501 25H26.0834L35.9167 45.8333H67.1667Z" fill="#FFFF"/>
</g>
</svg>
